<svg width="414" height="63" viewBox="0 0 414 63" fill="none" xmlns="http://www.w3.org/2000/svg">
<path d="M94.4453 36.6836L100.07 36.1367C100.409 38.0247 101.092 39.4115 102.121 40.2969C103.163 41.1823 104.562 41.625 106.32 41.625C108.182 41.625 109.582 41.2344 110.52 40.4531C111.47 39.6589 111.945 38.7344 111.945 37.6797C111.945 37.0026 111.743 36.4297 111.34 35.9609C110.949 35.4792 110.259 35.0625 109.27 34.7109C108.592 34.4766 107.049 34.0599 104.641 33.4609C101.542 32.6927 99.3672 31.7487 98.1172 30.6289C96.3594 29.0534 95.4805 27.1328 95.4805 24.8672C95.4805 23.4089 95.8906 22.0482 96.7109 20.7852C97.5443 19.5091 98.7357 18.5391 100.285 17.875C101.848 17.2109 103.729 16.8789 105.93 16.8789C109.523 16.8789 112.225 17.6667 114.035 19.2422C115.858 20.8177 116.815 22.9206 116.906 25.5508L111.125 25.8047C110.878 24.3333 110.344 23.2786 109.523 22.6406C108.716 21.9896 107.499 21.6641 105.871 21.6641C104.191 21.6641 102.876 22.0091 101.926 22.6992C101.314 23.1419 101.008 23.7344 101.008 24.4766C101.008 25.1536 101.294 25.7331 101.867 26.2148C102.596 26.8268 104.367 27.4648 107.18 28.1289C109.992 28.793 112.069 29.4831 113.41 30.1992C114.764 30.9023 115.819 31.8724 116.574 33.1094C117.342 34.3333 117.727 35.8503 117.727 37.6602C117.727 39.3008 117.271 40.8372 116.359 42.2695C115.448 43.7018 114.159 44.7695 112.492 45.4727C110.826 46.1628 108.749 46.5078 106.262 46.5078C102.642 46.5078 99.862 45.6745 97.9219 44.0078C95.9818 42.3281 94.8229 39.8867 94.4453 36.6836ZM122.609 46V17.3672H128.391V28.6367H139.719V17.3672H145.5V46H139.719V33.4805H128.391V46H122.609ZM150.324 31.8594C150.324 28.9427 150.76 26.4948 151.633 24.5156C152.284 23.0573 153.169 21.7487 154.289 20.5898C155.422 19.431 156.659 18.5716 158 18.0117C159.784 17.2565 161.841 16.8789 164.172 16.8789C168.391 16.8789 171.763 18.1875 174.289 20.8047C176.828 23.4219 178.098 27.0612 178.098 31.7227C178.098 36.3451 176.841 39.9648 174.328 42.582C171.815 45.1862 168.456 46.4883 164.25 46.4883C159.992 46.4883 156.607 45.1927 154.094 42.6016C151.581 39.9974 150.324 36.4167 150.324 31.8594ZM156.281 31.6641C156.281 34.9062 157.03 37.3672 158.527 39.0469C160.025 40.7135 161.926 41.5469 164.23 41.5469C166.535 41.5469 168.423 40.7201 169.895 39.0664C171.379 37.3997 172.121 34.9062 172.121 31.5859C172.121 28.3047 171.398 25.8568 169.953 24.2422C168.521 22.6276 166.613 21.8203 164.23 21.8203C161.848 21.8203 159.927 22.6406 158.469 24.2812C157.01 25.9089 156.281 28.3698 156.281 31.6641ZM186.691 46L179.855 17.3672H185.773L190.09 37.0352L195.324 17.3672H202.199L207.219 37.3672L211.613 17.3672H217.434L210.48 46H204.348L198.645 24.5938L192.961 46H186.691ZM226.848 46V22.2109H218.352V17.3672H241.105V22.2109H232.629V46H226.848ZM244.875 46V17.3672H257.043C260.103 17.3672 262.323 17.6276 263.703 18.1484C265.096 18.6562 266.21 19.5677 267.043 20.8828C267.876 22.1979 268.293 23.7018 268.293 25.3945C268.293 27.543 267.661 29.3203 266.398 30.7266C265.135 32.1198 263.247 32.9987 260.734 33.3633C261.984 34.0924 263.013 34.8932 263.82 35.7656C264.641 36.638 265.741 38.1875 267.121 40.4141L270.617 46H263.703L259.523 39.7695C258.039 37.543 257.023 36.1432 256.477 35.5703C255.93 34.9844 255.35 34.5872 254.738 34.3789C254.126 34.1576 253.156 34.0469 251.828 34.0469H250.656V46H244.875ZM250.656 29.4766H254.934C257.707 29.4766 259.439 29.3594 260.129 29.125C260.819 28.8906 261.359 28.487 261.75 27.9141C262.141 27.3411 262.336 26.625 262.336 25.7656C262.336 24.8021 262.076 24.0273 261.555 23.4414C261.047 22.8424 260.324 22.4648 259.387 22.3086C258.918 22.2435 257.512 22.2109 255.168 22.2109H250.656V29.4766ZM299.582 46H293.293L290.793 39.4961H279.348L276.984 46H270.852L282.004 17.3672H288.117L299.582 46ZM288.938 34.6719L284.992 24.0469L281.125 34.6719H288.938ZM320.988 35.4727L326.594 37.25C325.734 40.375 324.302 42.6992 322.297 44.2227C320.305 45.7331 317.772 46.4883 314.699 46.4883C310.897 46.4883 307.772 45.1927 305.324 42.6016C302.876 39.9974 301.652 36.4427 301.652 31.9375C301.652 27.1719 302.883 23.474 305.344 20.8438C307.805 18.2005 311.04 16.8789 315.051 16.8789C318.553 16.8789 321.398 17.9141 323.586 19.9844C324.888 21.2083 325.865 22.9661 326.516 25.2578L320.793 26.625C320.454 25.1406 319.745 23.9688 318.664 23.1094C317.596 22.25 316.294 21.8203 314.758 21.8203C312.635 21.8203 310.91 22.582 309.582 24.1055C308.267 25.6289 307.609 28.0964 307.609 31.5078C307.609 35.1276 308.26 37.7057 309.562 39.2422C310.865 40.7786 312.557 41.5469 314.641 41.5469C316.177 41.5469 317.499 41.0586 318.605 40.082C319.712 39.1055 320.507 37.569 320.988 35.4727ZM331.652 46V17.3672H337.434V30.082L349.113 17.3672H356.887L346.105 28.5195L357.473 46H349.992L342.121 32.5625L337.434 37.3477V46H331.652ZM360.48 46V17.3672H381.711V22.2109H366.262V28.5586H380.637V33.3828H366.262V41.1758H382.258V46H360.48ZM387.18 46V17.3672H399.348C402.408 17.3672 404.628 17.6276 406.008 18.1484C407.401 18.6562 408.514 19.5677 409.348 20.8828C410.181 22.1979 410.598 23.7018 410.598 25.3945C410.598 27.543 409.966 29.3203 408.703 30.7266C407.44 32.1198 405.552 32.9987 403.039 33.3633C404.289 34.0924 405.318 34.8932 406.125 35.7656C406.945 36.638 408.046 38.1875 409.426 40.4141L412.922 46H406.008L401.828 39.7695C400.344 37.543 399.328 36.1432 398.781 35.5703C398.234 34.9844 397.655 34.5872 397.043 34.3789C396.431 34.1576 395.461 34.0469 394.133 34.0469H392.961V46H387.18ZM392.961 29.4766H397.238C400.012 29.4766 401.743 29.3594 402.434 29.125C403.124 28.8906 403.664 28.487 404.055 27.9141C404.445 27.3411 404.641 26.625 404.641 25.7656C404.641 24.8021 404.38 24.0273 403.859 23.4414C403.352 22.8424 402.629 22.4648 401.691 22.3086C401.223 22.2435 399.816 22.2109 397.473 22.2109H392.961V29.4766Z" fill="white"/>
<path d="M53.048 28.5163L15.8368 4.53438C12.8 2.5772 8.80109 4.75741 8.80109 8.37029V56.3341C8.80109 59.947 12.8 62.1272 15.8368 60.17L53.048 36.1881C55.8365 34.391 55.8365 30.3134 53.048 28.5163Z" fill="#D9D9D9"/>
<path d="M47.1309 14.0346C45.7077 12.0789 43.224 11.1848 40.9529 12.0169C39.574 12.5222 38.0057 13.1687 36.578 13.9286C32.9387 15.8656 23.3938 23.725 18.8006 31.342L13.6208 26.4563L13.0052 25.8532C10.7891 23.6825 7.2441 23.6825 5.02806 25.8532L4.75551 26.1202C2.30638 28.5191 2.68919 32.5647 5.54482 34.4618V34.4618C10.1469 37.5875 12.0376 39.7698 13.7934 43.7377C14.068 44.3583 14.4403 44.9333 14.9149 45.4184V45.4184C16.9546 47.5032 20.2985 47.5388 22.3821 45.4978L22.5461 45.3372C22.9875 44.9048 23.3539 44.3971 23.632 43.8453C29.3775 32.4454 34.0143 27.4593 44.4543 23.0468C45.1239 22.7638 45.7442 22.3733 46.2778 21.8795L46.3721 21.7923C48.5546 19.7724 48.8806 16.4391 47.1309 14.0346V14.0346Z" fill="#1E1E1E" stroke="#D9D9D9" stroke-width="3.25967"/>
</svg>
